#define spiral_width 24
#define spiral_height 24
static unsigned char spiral_bits[] = {
   0xff, 0xf3, 0xf9, 0xff, 0xf3, 0xf9, 0xff, 0xf3, 0xf9, 0xff, 0xf3, 0xf9,
   0xff, 0xf3, 0xf9, 0xff, 0xf3, 0xf9, 0xff, 0xf3, 0xf9, 0xff, 0xf3, 0xf9,
   0xff, 0xf3, 0xf9, 0xff, 0xf3, 0xf9, 0xff, 0xf3, 0xf9, 0xff, 0x03, 0x00,
   0xff, 0xf3, 0xff, 0xff, 0xf3, 0xff, 0xff, 0xf3, 0xff, 0xff, 0xf3, 0xff,
   0xff, 0xf3, 0xff, 0xff, 0xf3, 0xff, 0xff, 0xf3, 0xff, 0xff, 0xf3, 0xff,
   0xff, 0xf3, 0xff, 0xff, 0xf3, 0xff, 0xff, 0xf3, 0xff, 0xff, 0xf3, 0xff };
