#define tall_width 24
#define tall_height 24
static unsigned char tall_bits[] = {
   0xff, 0xfd, 0x7f, 0xff, 0xfd, 0x7f, 0xff, 0xfd, 0x7f, 0xff, 0xfd, 0x7f,
   0xff, 0xfd, 0x7f, 0xff, 0xfd, 0x7f, 0xff, 0x01, 0x00, 0xff, 0x01, 0x00,
   0xff, 0xfd, 0x7f, 0xff, 0xfd, 0x7f, 0xff, 0xfd, 0x7f, 0xff, 0xfd, 0x7f,
   0xff, 0xfd, 0x7f, 0xff, 0xfd, 0x7f, 0xff, 0x01, 0x00, 0xff, 0x01, 0x00,
   0xff, 0x01, 0x00, 0xff, 0xfd, 0x7f, 0xff, 0xfd, 0x7f, 0xff, 0xfd, 0x7f,
   0xff, 0xfd, 0x7f, 0xff, 0xfd, 0x7f, 0xff, 0xfd, 0x7f, 0x00, 0x00, 0x00 };
