#define wide_width 24
#define wide_height 24
static unsigned char wide_bits[] = {
   0xfe, 0xff, 0xff, 0xfe, 0xff, 0xff, 0xfe, 0xff, 0xff, 0xfe, 0xff, 0xff,
   0xfe, 0xff, 0xff, 0xfe, 0xff, 0xff, 0xfe, 0xff, 0xff, 0xfe, 0xff, 0xff,
   0xfe, 0xff, 0xff, 0x00, 0x00, 0x00, 0x7e, 0xfc, 0xfc, 0x7e, 0xfc, 0xfc,
   0x7e, 0xfc, 0xfc, 0x7e, 0xfc, 0xfc, 0x7e, 0xfc, 0xfc, 0x7e, 0xfc, 0xfc,
   0x7e, 0xfc, 0xfc, 0x7e, 0xfc, 0xfc, 0x7e, 0xfc, 0xfc, 0x7e, 0xfc, 0xfc,
   0x7e, 0xfc, 0xfc, 0x7e, 0xfc, 0xfc, 0x7e, 0xfc, 0xfc, 0x00, 0x00, 0x00 };
